<?xml version="1.0" encoding="UTF-8"?>
<svg xmlns="http://www.w3.org/2000/svg" viewBox="0 0 512 512" width="100%">
  <defs>
    <filter id="whiteToTransparentBlack" color-interpolation-filters="sRGB">
      <feColorMatrix in="SourceGraphic" type="luminanceToAlpha" result="lumAlpha"/>
      <feComponentTransfer in="lumAlpha" result="invAlpha">
        <feFuncA type="table" tableValues="1 0"/>
      </feComponentTransfer>
      <feFlood flood-color="black" result="blackFill"/>
      <feComposite in="blackFill" in2="invAlpha" operator="in" result="maskedBlack"/>
      <!-- Output: maskedBlack -->
    </filter>
  </defs>
  <g filter="url(#whiteToTransparentBlack)">

<path fill="#010101" opacity="1.000000" stroke="none" 
	d="
M239.000000,1.000000 
	C250.687561,1.000000 262.375122,1.000000 274.743774,1.367074 
	C287.579407,3.518970 299.865417,4.678261 311.865387,7.198959 
	C359.032806,17.106873 400.252228,38.684105 435.147125,71.960930 
	C477.094482,111.963181 501.403931,161.113251 510.065186,218.227798 
	C510.965363,224.163696 512.018066,230.076492 513.000000,236.000000 
	C513.000000,248.687561 513.000000,261.375122 512.606079,274.708771 
	C502.104370,377.814972 450.442444,450.496887 356.514954,493.904480 
	C355.891693,491.743774 355.561401,490.638824 355.254211,489.527527 
	C350.210724,471.283905 345.733063,452.859528 339.974609,434.844574 
	C333.914948,415.887390 326.667725,397.308197 319.854462,378.594788 
	C318.297302,374.317871 318.997375,371.235626 322.713104,368.155823 
	C336.783478,356.493469 345.176117,341.924561 346.185059,323.146240 
	C347.140442,305.365479 345.225891,287.966766 341.833893,270.608765 
	C341.534027,269.074249 342.234253,267.344360 342.469940,265.705200 
	C343.755005,266.964264 345.574280,267.994110 346.230225,269.523071 
	C348.713257,275.310760 350.704407,281.307190 353.091156,287.138947 
	C357.362000,297.574249 361.435333,308.113495 366.270111,318.286652 
	C369.464050,325.007355 375.480164,329.293732 383.072815,328.793671 
	C389.658569,328.359955 392.728210,322.464172 394.713715,317.039520 
	C398.189606,307.542694 401.375397,297.873169 403.730804,288.047791 
	C407.629639,271.784180 404.044220,257.138824 391.324585,245.760376 
	C383.544403,238.800568 375.287537,232.273117 366.688263,226.360931 
	C359.705292,221.560013 351.685516,218.644379 342.824005,219.139908 
	C341.322662,211.952286 339.527191,205.016998 338.481018,197.970444 
	C336.787323,186.562973 329.804504,179.557068 320.002228,174.941971 
	C314.924652,172.551331 309.595978,170.442383 304.159271,169.109131 
	C278.631042,162.848770 252.760025,162.545441 226.793030,165.584305 
	C214.352356,167.040207 202.166046,169.636978 191.179291,176.070496 
	C183.290359,180.690033 177.383255,186.711349 175.909744,196.395706 
	C174.744110,204.056503 172.738464,211.589462 171.164749,218.905396 
	C168.088898,219.177841 165.387085,219.046524 162.889023,219.697281 
	C143.475906,224.754379 129.102417,237.290680 116.900597,252.310577 
	C113.020912,257.086273 110.017517,263.739899 109.429054,269.807312 
	C107.572746,288.947083 113.866104,306.588684 123.010559,323.014557 
	C127.436745,330.965149 135.371964,331.028687 142.863846,324.328308 
	C144.921722,322.487823 146.700668,320.103149 147.948669,317.635040 
	C151.090881,311.420685 154.145782,305.130493 156.705978,298.661072 
	C160.428085,289.255676 163.624786,279.643433 167.193008,270.174988 
	C167.873688,268.368835 169.237976,266.820312 170.286850,265.152924 
	C170.922043,265.339050 171.557236,265.525146 172.192429,265.711273 
	C172.021133,268.304779 171.955795,270.910461 171.660385,273.489746 
	C170.319031,285.201050 168.417511,296.871887 167.635468,308.618439 
	C166.115051,331.455048 171.484268,351.897064 190.016922,367.235870 
	C196.085190,372.258362 196.124954,372.852173 193.635971,380.359222 
	C193.218964,381.616913 192.706696,382.842896 192.283066,384.098602 
	C182.626343,412.721985 172.844238,441.304230 163.414139,470.002136 
	C160.971832,477.434631 159.635727,485.230621 157.737228,493.084167 
	C153.016266,491.110046 148.773758,489.603485 144.766754,487.620911 
	C64.719101,448.015564 19.204861,383.016663 3.936653,295.835785 
	C2.840654,289.577698 1.973539,283.279541 1.000000,277.000000 
	C1.000000,263.312439 1.000000,249.624878 1.385520,235.319366 
	C2.519382,228.768188 3.048024,222.797470 4.052621,216.907944 
	C9.542558,184.722687 19.208677,153.888031 36.390369,125.969879 
	C78.799416,57.060356 140.121246,16.271103 220.193420,3.890590 
	C226.461411,2.921455 232.731094,1.963273 239.000000,1.000000 
M371.907532,132.622299 
	C337.135559,116.887024 302.298340,101.293121 267.643250,85.304504 
	C260.164093,81.853882 253.678329,82.156563 246.313385,85.551201 
	C216.325928,99.373016 186.139542,112.762840 156.045135,126.353203 
	C143.037033,132.227539 130.026550,138.102188 117.145813,144.246445 
	C115.354340,145.101028 113.270729,147.471512 113.207695,149.208664 
	C113.147484,150.868088 115.221283,153.127106 116.933075,154.221848 
	C120.695663,156.628174 124.818718,158.472122 128.800461,160.534378 
	C143.048309,167.913803 157.298599,175.288574 171.704315,182.746017 
	C182.137405,169.143875 196.482788,163.107346 212.317596,159.918076 
	C239.874191,154.367950 267.556244,154.393494 295.218872,158.897949 
	C313.449860,161.866608 330.384552,167.750961 342.502716,183.006912 
	C348.020325,180.081070 353.417023,177.173096 358.856598,174.347717 
	C364.392181,171.472519 369.970001,168.678665 376.156403,165.530014 
	C376.156403,173.834885 376.129700,181.309616 376.169098,188.784012 
	C376.185730,191.935608 376.056122,194.529877 373.021149,196.953873 
	C368.351379,200.683563 368.557678,208.250565 372.607147,212.638947 
	C376.680145,217.052734 383.707520,217.552597 388.418365,213.763596 
	C392.918671,210.143951 394.442078,201.783508 389.972412,198.228745 
	C384.922394,194.212494 385.531555,189.536041 385.510681,184.521317 
	C385.494720,180.689407 385.988831,176.783524 385.413544,173.040024 
	C384.017914,163.957977 386.752380,157.949265 396.075531,155.149506 
	C398.169128,154.520798 400.899384,151.228653 400.782776,149.318558 
	C400.656708,147.253418 397.894928,144.670792 395.661804,143.536316 
	C388.124023,139.706970 380.310638,136.420059 371.907532,132.622299 
z"/>
<path fill="#FEFEFE" opacity="1.000000" stroke="none" 
	d="
M1.000000,277.468658 
	C1.973539,283.279541 2.840654,289.577698 3.936653,295.835785 
	C19.204861,383.016663 64.719101,448.015564 144.766754,487.620911 
	C148.773758,489.603485 153.016266,491.110046 157.737228,493.084167 
	C159.635727,485.230621 160.971832,477.434631 163.414139,470.002136 
	C172.844238,441.304230 182.626343,412.721985 192.283066,384.098602 
	C192.706696,382.842896 193.218964,381.616913 193.635971,380.359222 
	C196.124954,372.852173 196.085190,372.258362 190.016922,367.235870 
	C171.484268,351.897064 166.115051,331.455048 167.635468,308.618439 
	C168.417511,296.871887 170.319031,285.201050 171.660385,273.489746 
	C171.955795,270.910461 172.021133,268.304779 172.192429,265.711273 
	C171.557236,265.525146 170.922043,265.339050 170.286850,265.152924 
	C169.237976,266.820312 167.873688,268.368835 167.193008,270.174988 
	C163.624786,279.643433 160.428085,289.255676 156.705978,298.661072 
	C154.145782,305.130493 151.090881,311.420685 147.948669,317.635040 
	C146.700668,320.103149 144.921722,322.487823 142.863846,324.328308 
	C135.371964,331.028687 127.436745,330.965149 123.010559,323.014557 
	C113.866104,306.588684 107.572746,288.947083 109.429054,269.807312 
	C110.017517,263.739899 113.020912,257.086273 116.900597,252.310577 
	C129.102417,237.290680 143.475906,224.754379 162.889023,219.697281 
	C165.387085,219.046524 168.088898,219.177841 171.164749,218.905396 
	C172.738464,211.589462 174.744110,204.056503 175.909744,196.395706 
	C177.383255,186.711349 183.290359,180.690033 191.179291,176.070496 
	C202.166046,169.636978 214.352356,167.040207 226.793030,165.584305 
	C252.760025,162.545441 278.631042,162.848770 304.159271,169.109131 
	C309.595978,170.442383 314.924652,172.551331 320.002228,174.941971 
	C329.804504,179.557068 336.787323,186.562973 338.481018,197.970444 
	C339.527191,205.016998 341.322662,211.952286 342.824005,219.139908 
	C351.685516,218.644379 359.705292,221.560013 366.688263,226.360931 
	C375.287537,232.273117 383.544403,238.800568 391.324585,245.760376 
	C404.044220,257.138824 407.629639,271.784180 403.730804,288.047791 
	C401.375397,297.873169 398.189606,307.542694 394.713715,317.039520 
	C392.728210,322.464172 389.658569,328.359955 383.072815,328.793671 
	C375.480164,329.293732 369.464050,325.007355 366.270111,318.286652 
	C361.435333,308.113495 357.362000,297.574249 353.091156,287.138947 
	C350.704407,281.307190 348.713257,275.310760 346.230225,269.523071 
	C345.574280,267.994110 343.755005,266.964264 342.469940,265.705200 
	C342.234253,267.344360 341.534027,269.074249 341.833893,270.608765 
	C345.225891,287.966766 347.140442,305.365479 346.185059,323.146240 
	C345.176117,341.924561 336.783478,356.493469 322.713104,368.155823 
	C318.997375,371.235626 318.297302,374.317871 319.854462,378.594788 
	C326.667725,397.308197 333.914948,415.887390 339.974609,434.844574 
	C345.733063,452.859528 350.210724,471.283905 355.254211,489.527527 
	C355.561401,490.638824 355.891693,491.743774 356.514954,493.904480 
	C450.442444,450.496887 502.104370,377.814972 512.606079,275.177429 
	C513.000000,354.298126 513.000000,433.596222 513.000000,512.947144 
	C342.444336,512.947144 171.888641,512.947144 1.000000,512.947144 
	C1.000000,434.646088 1.000000,356.291687 1.000000,277.468658 
z"/>
<path fill="#FEFEFE" opacity="1.000000" stroke="none" 
	d="
M238.531342,1.000000 
	C232.731094,1.963273 226.461411,2.921455 220.193420,3.890590 
	C140.121246,16.271103 78.799416,57.060356 36.390369,125.969879 
	C19.208677,153.888031 9.542558,184.722687 4.052621,216.907944 
	C3.048024,222.797470 2.519382,228.768188 1.385520,234.850708 
	C1.000000,157.072342 1.000000,79.144676 1.000000,1.000000 
	C80.020760,1.000000 159.041718,1.000000 238.531342,1.000000 
z"/>
<path fill="#FEFEFE" opacity="1.000000" stroke="none" 
	d="
M513.000000,235.531342 
	C512.018066,230.076492 510.965363,224.163696 510.065186,218.227798 
	C501.403931,161.113251 477.094482,111.963181 435.147125,71.960930 
	C400.252228,38.684105 359.032806,17.106873 311.865387,7.198959 
	C299.865417,4.678261 287.579407,3.518970 275.212402,1.367074 
	C354.259918,1.000000 433.519806,1.000000 513.000000,1.000000 
	C513.000000,79.020760 513.000000,157.041718 513.000000,235.531342 
z"/>
<path fill="#FDFDFD" opacity="1.000000" stroke="none" 
	d="
M372.255096,132.774017 
	C380.310638,136.420059 388.124023,139.706970 395.661804,143.536316 
	C397.894928,144.670792 400.656708,147.253418 400.782776,149.318558 
	C400.899384,151.228653 398.169128,154.520798 396.075531,155.149506 
	C386.752380,157.949265 384.017914,163.957977 385.413544,173.040024 
	C385.988831,176.783524 385.494720,180.689407 385.510681,184.521317 
	C385.531555,189.536041 384.922394,194.212494 389.972412,198.228745 
	C394.442078,201.783508 392.918671,210.143951 388.418365,213.763596 
	C383.707520,217.552597 376.680145,217.052734 372.607147,212.638947 
	C368.557678,208.250565 368.351379,200.683563 373.021149,196.953873 
	C376.056122,194.529877 376.185730,191.935608 376.169098,188.784012 
	C376.129700,181.309616 376.156403,173.834885 376.156403,165.530014 
	C369.970001,168.678665 364.392181,171.472519 358.856598,174.347717 
	C353.417023,177.173096 348.020325,180.081070 342.502716,183.006912 
	C330.384552,167.750961 313.449860,161.866608 295.218872,158.897949 
	C267.556244,154.393494 239.874191,154.367950 212.317596,159.918076 
	C196.482788,163.107346 182.137405,169.143875 171.704315,182.746017 
	C157.298599,175.288574 143.048309,167.913803 128.800461,160.534378 
	C124.818718,158.472122 120.695663,156.628174 116.933075,154.221848 
	C115.221283,153.127106 113.147484,150.868088 113.207695,149.208664 
	C113.270729,147.471512 115.354340,145.101028 117.145813,144.246445 
	C130.026550,138.102188 143.037033,132.227539 156.045135,126.353203 
	C186.139542,112.762840 216.325928,99.373016 246.313385,85.551201 
	C253.678329,82.156563 260.164093,81.853882 267.643250,85.304504 
	C302.298340,101.293121 337.135559,116.887024 372.255096,132.774017 
z"/>

  </g>
</svg>
